<svg width="42" height="41" viewBox="0 0 42 41" fill="none" xmlns="http://www.w3.org/2000/svg">
<path d="M27.5625 26.9063V30.75M14.4375 19.2188H14.4515V19.2324H14.4375V19.2188ZM14.4375 23.0625H14.4515V23.0762H14.4375V23.0625ZM14.4375 26.9063H14.4515V26.9199H14.4375V26.9063ZM14.4375 30.75H14.4515V30.7637H14.4375V30.75ZM18.809 19.2188H18.8213V19.2324H18.809V19.2188ZM18.809 23.0625H18.8213V23.0762H18.809V23.0625ZM18.809 26.9063H18.8213V26.9199H18.809V26.9063ZM18.809 30.75H18.8213V30.7637H18.809V30.75ZM23.191 19.2188H23.205V19.2324H23.191V19.2188ZM23.191 23.0625H23.205V23.0762H23.191V23.0625ZM23.191 26.9063H23.205V26.9199H23.191V26.9063ZM23.191 30.75H23.205V30.7637H23.191V30.75ZM27.5625 19.2188H27.5765V19.2324H27.5625V19.2188ZM27.5625 23.0625H27.5765V23.0762H27.5625V23.0625ZM14.4375 10.25H27.5625V14.0938H14.4375V10.25ZM21 3.84375C17.689 3.84375 14.4235 4.03167 11.2123 4.39384C9.28725 4.6125 7.875 6.23542 7.875 8.12654V33.3125C7.875 34.3319 8.28984 35.3096 9.02827 36.0304C9.76669 36.7513 10.7682 37.1563 11.8125 37.1563H30.1875C31.2318 37.1563 32.2333 36.7513 32.9717 36.0304C33.7102 35.3096 34.125 34.3319 34.125 33.3125V8.12654C34.125 6.23371 32.7145 4.6125 30.7878 4.39384C27.5387 4.02656 24.2707 3.84289 21 3.84375Z" stroke="black" stroke-width="3" stroke-linecap="round" stroke-linejoin="round"/>
</svg>
