<svg width="41" height="41" viewBox="0 0 41 41" fill="none" xmlns="http://www.w3.org/2000/svg">
<path d="M16.6562 5.30267V15.0641C16.6562 15.5689 16.5568 16.0687 16.3637 16.535C16.1705 17.0014 15.8874 17.4251 15.5304 17.782L8.54165 24.7708M16.6562 5.30267C16.2274 5.34196 15.8004 5.38808 15.375 5.44275M16.6562 5.30267C19.2132 5.0649 21.7867 5.0649 24.3437 5.30267M8.54165 24.7708L9.85706 24.4411C13.4326 23.5576 17.206 23.9773 20.5 25.625C23.794 27.2727 27.5673 27.6924 31.1429 26.8089L33.825 26.1375M8.54165 24.7708L4.7799 28.5343C2.67352 30.6372 3.66777 34.2008 6.60269 34.7014C11.1195 35.4735 15.7628 35.875 20.5 35.875C25.1572 35.8766 29.8063 35.484 34.3973 34.7014C37.3305 34.2008 38.3247 30.6372 36.2201 28.5326L33.825 26.1375M24.3437 5.30267V15.0641C24.3437 16.084 24.7486 17.0628 25.4695 17.782L33.825 26.1375M24.3437 5.30267C24.7725 5.34196 25.1996 5.38808 25.625 5.44275" stroke="black" stroke-width="3" stroke-linecap="round" stroke-linejoin="round"/>
</svg>
