<svg width="41" height="42" viewBox="0 0 41 42" fill="none" xmlns="http://www.w3.org/2000/svg">
<path d="M26.9063 27.5625V31.5M14.0938 19.6875H14.1074V19.7015H14.0938V19.6875ZM14.0938 23.625H14.1074V23.639H14.0938V23.625ZM14.0938 27.5625H14.1074V27.5765H14.0938V27.5625ZM14.0938 31.5H14.1074V31.514H14.0938V31.5ZM18.3612 19.6875H18.3731V19.7015H18.3612V19.6875ZM18.3612 23.625H18.3731V23.639H18.3612V23.625ZM18.3612 27.5625H18.3731V27.5765H18.3612V27.5625ZM18.3612 31.5H18.3731V31.514H18.3612V31.5ZM22.6388 19.6875H22.6525V19.7015H22.6388V19.6875ZM22.6388 23.625H22.6525V23.639H22.6388V23.625ZM22.6388 27.5625H22.6525V27.5765H22.6388V27.5625ZM22.6388 31.5H22.6525V31.514H22.6388V31.5ZM26.9063 19.6875H26.9199V19.7015H26.9063V19.6875ZM26.9063 23.625H26.9199V23.639H26.9063V23.625ZM14.0938 10.5H26.9063V14.4375H14.0938V10.5ZM20.5 3.9375C17.2678 3.9375 14.0801 4.13 10.9453 4.501C9.06613 4.725 7.6875 6.3875 7.6875 8.32475V34.125C7.6875 35.1693 8.09247 36.1708 8.81331 36.9092C9.53415 37.6477 10.5118 38.0625 11.5313 38.0625H29.4688C30.4882 38.0625 31.4658 37.6477 32.1867 36.9092C32.9075 36.1708 33.3125 35.1693 33.3125 34.125V8.32475C33.3125 6.38575 31.9356 4.725 30.0547 4.501C26.8831 4.12477 23.6928 3.93662 20.5 3.9375Z" stroke="black" stroke-width="3" stroke-linecap="round" stroke-linejoin="round"/>
</svg>
